
<svg width="512" height="512" viewBox="0 0 512 512" xmlns="http://www.w3.org/2000/svg"><title>Icon Round Color</title><g fill="none" fill-rule="evenodd"><circle stroke="#DB222A" fill="#DB222A" cx="256" cy="256" r="256"/><path d="M103 254.154c0 19.036 15.554 34.79 34.35 34.79 18.794 0 34.349-15.754 34.349-34.79s-15.555-34.79-34.35-34.79S103 235.118 103 254.154zM203.456 136H239.1v185.764h-35.645V136zm71.29 0h35.646v239.59h-35.645V136zm64.811 118.154c0 19.036 15.554 34.79 34.35 34.79 18.794 0 34.349-15.754 34.349-34.79s-15.555-34.79-34.35-34.79c-19.443 0-34.349 15.754-34.349 34.79z" fill="#FFF" fill-rule="nonzero"/></g></svg>