<?xml version="1.0" encoding="utf-8"?>
<!-- Generator: Adobe Illustrator 15.0.2, SVG Export Plug-In . SVG Version: 6.00 Build 0)  -->
<!DOCTYPE svg PUBLIC "-//W3C//DTD SVG 1.1//EN" "http://www.w3.org/Graphics/SVG/1.1/DTD/svg11.dtd">
<svg version="1.1" xmlns="http://www.w3.org/2000/svg" xmlns:xlink="http://www.w3.org/1999/xlink" x="0px" y="0px"
	 width="841.89px" height="595.28px" viewBox="0 0 841.89 595.28" enable-background="new 0 0 841.89 595.28" xml:space="preserve">
<g id="Layer_1">
</g>
<g id="idno">
	
		<rect x="550.754" y="385.437" transform="matrix(0.3048 0.9524 -0.9524 0.3048 824.446 -203.7018)" width="1.999" height="154.876"/>
	<path d="M460.332,471.055v-88.388c-0.003-0.177-0.18-19.491,14.266-22.973c4.441-1.069,8.051-0.262,10.619,2.357
		c4.222,4.306,4.121,11.978,4.115,12.302v87.034L460.332,471.055z M478.209,361.234c-0.97,0-2.026,0.136-3.143,0.405
		c-12.882,3.104-12.737,20.831-12.734,21.01v85.63l25-8.333v-85.612c0.001-0.09,0.086-7.187-3.548-10.887
		C482.341,361.979,480.466,361.234,478.209,361.234z"/>
	<path d="M579.332,433.049V345c0.029-0.869,0.851-20.52,14.465-23.312c1.019-0.209,2.007-0.314,2.938-0.314
		c8.952,0,11.718,9.76,11.929,14.92l0.001,87.098L579.332,433.049z M596.735,323.373c-0.797,0-1.65,0.092-2.536,0.273
		c-12.07,2.477-12.861,21.199-12.868,21.388l0.001,85.251l25.333-8.342v-85.609C606.644,335.845,606.005,323.373,596.735,323.373z"
		/>
	<path d="M673,405.408v-43.74c0.061-0.716,1.51-15.46,11.701-18.622c1.125-0.35,2.209-0.526,3.22-0.526
		c6.264,0,8.67,6.784,9.067,10.371l0.006,0.11v44.045L673,405.408z M687.921,344.52c-0.81,0-1.694,0.146-2.628,0.437
		c-8.926,2.77-10.284,16.662-10.297,16.802L675,402.594l19.994-6.97v-42.563C694.896,352.277,693.778,344.52,687.921,344.52z"/>
	<path d="M724.334,388.811v-43.74c0.061-0.716,1.51-15.46,11.701-18.622c1.125-0.35,2.209-0.526,3.22-0.526
		c6.264,0,8.67,6.784,9.067,10.371l0.006,0.11v44.045L724.334,388.811z M739.255,327.922c-0.81,0-1.694,0.146-2.628,0.437
		c-8.926,2.77-10.284,16.662-10.297,16.802l0.004,40.836l19.994-6.97v-42.563C746.23,335.68,745.112,327.922,739.255,327.922z"/>
	<path d="M673,327.78v-43.74c0.061-0.716,1.51-15.46,11.701-18.622c1.125-0.349,2.209-0.526,3.22-0.526
		c6.264,0,8.67,6.784,9.067,10.372l0.006,0.11v44.045L673,327.78z M687.921,266.892c-0.81,0-1.694,0.147-2.628,0.437
		c-8.926,2.77-10.284,16.662-10.297,16.802L675,324.966l19.994-6.97v-42.563C694.896,274.65,693.778,266.892,687.921,266.892z"/>
	<path d="M724.334,311.183v-43.74c0.061-0.716,1.51-15.46,11.701-18.622c1.125-0.349,2.209-0.526,3.22-0.526
		c6.264,0,8.67,6.784,9.067,10.372l0.006,0.11v44.045L724.334,311.183z M739.255,250.294c-0.81,0-1.694,0.147-2.628,0.437
		c-8.926,2.77-10.284,16.662-10.297,16.802l0.004,40.835l19.994-6.97v-42.563C746.23,258.052,745.112,250.294,739.255,250.294z"/>
	<path d="M332.086,512.886v-43.74c0.061-0.716,1.51-15.46,11.701-18.622c1.126-0.35,2.209-0.526,3.22-0.526
		c6.264,0,8.67,6.784,9.067,10.371l0.006,0.11v44.045L332.086,512.886z M347.007,451.997c-0.81,0-1.694,0.146-2.627,0.437
		c-8.926,2.77-10.285,16.662-10.297,16.802l0.004,40.836l19.994-6.97v-42.563C353.982,459.755,352.864,451.997,347.007,451.997z"/>
	<path d="M383.42,496.288v-43.74c0.061-0.716,1.51-15.46,11.701-18.622c1.126-0.35,2.209-0.526,3.22-0.526
		c6.264,0,8.67,6.784,9.067,10.371l0.006,0.11v44.045L383.42,496.288z M398.341,435.399c-0.81,0-1.694,0.146-2.627,0.437
		c-8.926,2.77-10.285,16.662-10.297,16.802l0.004,40.836l19.994-6.97V443.94C405.316,443.157,404.198,435.399,398.341,435.399z"/>
	<path d="M332.086,435.258v-43.74c0.061-0.716,1.51-15.46,11.701-18.622c1.126-0.35,2.209-0.526,3.22-0.526
		c6.264,0,8.67,6.784,9.067,10.371l0.006,0.11v44.045L332.086,435.258z M347.007,374.369c-0.81,0-1.694,0.146-2.627,0.437
		c-8.926,2.77-10.285,16.662-10.297,16.802l0.004,40.836l19.994-6.97V382.91C353.982,382.127,352.864,374.369,347.007,374.369z"/>
	<path d="M383.42,418.66v-43.74c0.061-0.716,1.51-15.46,11.701-18.622c1.126-0.35,2.209-0.526,3.22-0.526
		c6.264,0,8.67,6.784,9.067,10.371l0.006,0.11v44.045L383.42,418.66z M398.341,357.771c-0.81,0-1.694,0.146-2.627,0.437
		c-8.926,2.77-10.285,16.662-10.297,16.802l0.004,40.836l19.994-6.97v-42.563C405.316,365.529,404.198,357.771,398.341,357.771z"/>
	<path d="M104.661,457.892l-21.333-7.175v-42.053c0.028-0.607,0.754-13.756,9.49-13.756c0.429,0,0.874,0.034,1.323,0.101
		c9.709,1.439,10.491,18.875,10.519,19.617L104.661,457.892z M85.328,449.279l17.333,5.829v-40.444
		c-0.006-0.126-0.738-16.479-8.813-17.677c-0.353-0.053-0.7-0.079-1.03-0.079c-6.85,0-7.485,11.686-7.491,11.804L85.328,449.279z"/>
	<path d="M103.994,378.233l-21.333-7.175v-42.053c0.028-0.607,0.754-13.756,9.49-13.756c0.429,0,0.874,0.034,1.323,0.101
		c9.709,1.439,10.491,18.875,10.519,19.617L103.994,378.233z M84.661,369.621l17.333,5.829v-40.444
		c-0.006-0.126-0.738-16.479-8.813-17.677c-0.353-0.053-0.7-0.079-1.03-0.079c-6.85,0-7.485,11.686-7.491,11.804L84.661,369.621z"/>
	<path d="M254.327,508.226l-21.333-7.175v-42.053c0.028-0.607,0.754-13.756,9.49-13.756c0.429,0,0.874,0.034,1.323,0.101
		c9.709,1.439,10.491,18.875,10.519,19.617L254.327,508.226z M234.994,499.613l17.333,5.829v-40.444
		c-0.006-0.126-0.738-16.479-8.813-17.677c-0.353-0.053-0.7-0.079-1.03-0.079c-6.85,0-7.485,11.686-7.491,11.804L234.994,499.613z"
		/>
	<path d="M253.661,428.567l-21.333-7.175V379.34c0.028-0.607,0.754-13.756,9.49-13.756c0.429,0,0.874,0.034,1.323,0.101
		c9.709,1.439,10.491,18.875,10.519,19.617L253.661,428.567z M234.328,419.955l17.333,5.829V385.34
		c-0.006-0.126-0.738-16.479-8.813-17.677c-0.353-0.053-0.7-0.079-1.03-0.079c-6.85,0-7.485,11.686-7.491,11.804L234.328,419.955z"
		/>
	<path d="M289.327,520.017l-21.333-7.175v-42.053c0.028-0.607,0.754-13.756,9.49-13.756c0.429,0,0.874,0.034,1.323,0.101
		c9.709,1.439,10.491,18.875,10.519,19.617L289.327,520.017z M269.994,511.404l17.333,5.829v-40.444
		c-0.006-0.126-0.738-16.479-8.813-17.677c-0.353-0.053-0.7-0.079-1.03-0.079c-6.85,0-7.485,11.686-7.491,11.804L269.994,511.404z"
		/>
	<path d="M288.661,440.358l-21.333-7.175v-42.053c0.028-0.607,0.754-13.756,9.49-13.756c0.429,0,0.874,0.034,1.323,0.101
		c9.709,1.439,10.491,18.875,10.519,19.617L288.661,440.358z M269.328,431.746l17.333,5.829v-40.444
		c-0.006-0.126-0.738-16.479-8.813-17.677c-0.353-0.053-0.7-0.079-1.03-0.079c-6.85,0-7.485,11.686-7.491,11.804L269.328,431.746z"
		/>
	<polygon points="213.994,411.404 211.984,412.149 213.994,412.825 	"/>
	<path d="M789.5,208.153l-72.995-62.201L473.89,64.743l-67.923,100.364L388,170.804l-74.395-23.601l-26.52,47.239l-0.656-22.949
		l-11.977-5.988L261,172.585v38.451l-7.456,2.269l-120.667-39.546L58.5,283.775v8.762l8.5,6.707v175.639l233.735,77.912l1.235,0.411
		l139.53-44.279v-4.507l190.168-60.863l7.518,3.76l141.331-46.929l-0.008-173.304l8.991-9.49V208.153z M780.103,210.656
		l-47.493,14.998v-30.924c-0.013-0.457-0.386-11.182-7.465-11.182c-0.699,0-1.443,0.113-2.212,0.335
		c-8.666,2.507-9.105,14.426-9.12,14.96v32.747l-6.125,1.934v-30.582c-0.013-0.457-0.386-11.182-7.465-11.182
		c-0.699,0-1.443,0.113-2.212,0.335c-8.666,2.507-9.105,14.426-9.12,14.96v32.405l-43.449,13.721l67.566-99.696L780.103,210.656z
		 M730.609,194.757v31.426l-9.728,3.174l-5.069,1.601v-32.087c0.003-0.109,0.396-10.962,7.677-13.068
		c0.587-0.17,1.145-0.256,1.655-0.256C730.285,185.547,730.607,194.692,730.609,194.757z M705.688,202.969v31.187l-14.797,4.672
		v-31.745c0.003-0.109,0.396-10.962,7.677-13.068c0.587-0.17,1.145-0.256,1.655-0.256
		C705.363,193.759,705.686,202.904,705.688,202.969z M477.11,74.257l111.117,37.194l-50.69,15.901V98.387l-10.223-3.728L517.5,97.5
		v36.138l-102.292,32.088L477.11,74.257z M521.34,98.442l6.076-1.736l5.167,1.879l-5.574,1.858L521.34,98.442z M526,102.208v28.764
		l-6.5,2.039V99.913L526,102.208z M528,102.221l7.537-2.512v28.271L528,130.344V102.221z M317.394,156.797l62.783,19.917
		l-89.775,28.161L317.394,156.797z M279.821,208.195L275,209.708v-29.189l3.645-2.121L279.821,208.195z M274.547,174.496
		l3.674,1.837l-4.285,2.488l-3.701-2.056L274.547,174.496z M269,178.366l4,2.222v29.747l-4,1.255V178.366z M269,216.964v-3.278
		l10.902-3.42l0.012,0.292l9.054-3.136l94.531-29.653l4.5,1.428l23.034-7.303l2.373-3.506l178.053-55.854l5.037,1.686
		l38.284,137.631l-191.358,63.456l-69.6-57.753l-112.215-38.34L269,216.964z M383.582,291.996c-0.699,0-1.443,0.113-2.211,0.335
		c-8.667,2.507-9.106,14.425-9.121,14.96v32.734l-6.125,1.998l0-30.801c-0.012-0.456-0.386-11.183-7.464-11.183
		c-0.699,0-1.443,0.113-2.211,0.335c-8.667,2.507-9.106,14.426-9.121,14.961v32.821l-42.863,13.987l69.244-102.171l68.759,57.138
		l-51.421,16.779l0-30.713C391.034,302.722,390.661,291.996,383.582,291.996z M389.047,303.205v31.339l-14.797,4.828l0-32.052
		c0.003-0.109,0.415-10.968,7.677-13.069c0.587-0.17,1.145-0.256,1.656-0.256C388.722,293.996,389.044,303.141,389.047,303.205z
		 M364.125,311.25v31.426l-14.797,4.829l0-32.14c0.003-0.109,0.415-10.968,7.677-13.068c0.587-0.17,1.145-0.257,1.656-0.257
		C363.8,302.04,364.123,311.186,364.125,311.25z M120,417.047V392.91l73,25.55v24.835L120,417.047z M140,427.998v40.444
		l-17.333-5.829l-0.001-40.567c0.001-0.029,0.042-0.773,0.207-1.875l16.99,6.117C139.968,427.321,139.999,427.974,140,427.998z
		 M144,382.851v16.339l-22.114-7.739L144,382.851z M130.61,385.851l-8.61-2.896l-0.001-40.567
		c0.005-0.118,0.641-11.804,7.491-11.804c0.331,0,0.677,0.026,1.03,0.079c8.075,1.197,8.807,17.551,8.813,17.677v34.006
		L130.61,385.851z M158.676,404.326L159,355.021c0.002-0.122,0.35-12.153,7.23-12.153c0.399,0,0.821,0.04,1.254,0.117
		c8.45,1.511,9.502,15.936,9.51,16.016v51.737L158.676,404.326z M193.917,445.75l5.744-2.041v66.962l-24.967-8.322v-63.52
		L193.917,445.75z M222.003,408.436v25.177L195,443.241v-24.796L222.003,408.436z M208.923,411.12l-12.262-4.124l-0.001-40.567
		c0.005-0.118,0.641-11.804,7.491-11.804c0.331,0,0.677,0.026,1.03,0.079c8.075,1.197,8.807,17.551,8.813,17.677v36.849
		L208.923,411.12z M301,544.45l-99.339-33.113v-68.339l22.336-7.936V405.5l-8.002,2.983l-0.001-36.141
		c-0.028-0.742-0.81-18.178-10.519-19.617c-0.449-0.066-0.895-0.101-1.323-0.101c-8.736,0-9.462,13.148-9.49,13.756v42.053
		l11.286,3.796l-11.956,4.457l-14.997-5.249l-0.002-52.503c-0.043-0.657-1.167-16.133-11.155-17.919
		c-0.549-0.099-1.09-0.148-1.606-0.148c-8.815,0-9.217,13.532-9.23,14.124l-0.332,48.632L146,399.89v-20.223l-4.667,1.875
		l-0.001-33.24c-0.028-0.742-0.81-18.178-10.519-19.617c-0.449-0.066-0.895-0.101-1.323-0.101c-8.736,0-9.462,13.148-9.49,13.756
		v42.053l7.75,2.606l-9.75,3.918v27.5l2.952,1.062c-0.224,1.376-0.278,2.362-0.285,2.519v42.053L142,471.226l-0.001-43.266
		c-0.003-0.088-0.018-0.418-0.057-0.923l30.752,11.072v63.572L75,469.117V302.369l226,74.354V544.45z M301,374.618L75,300.263
		v-4.226l-8.5-7.573v-1.091l234.5,77.35V374.618z M301.596,362.814L67.03,285.441l69.093-102.2l117.333,38.454l4.881-1.485
		l113.601,38.813L301.596,362.814z M436.5,497.62l-3,0.96v4.493L303,544.486v-167.75l133.5-41.38V497.62z M303,374.644v-9.919
		l140.5-45.847v5.294l-6.609,8.971L303,374.644z M547.021,462.247l-24.689,7.902V364.001c0-0.18,0.154-17.937,11.922-21.034
		c1.048-0.275,2.051-0.416,2.981-0.416c8.628,0,9.779,12.407,9.786,12.449V462.247z M635,436.277l-2.668-1.334l-83.311,26.664
		l-0.004-106.69c-0.412-4.969-3.406-14.366-11.782-14.366c-1.102,0-2.276,0.162-3.491,0.482
		c-13.26,3.49-13.412,22.173-13.412,22.967v106.789l-81.832,26.19V334.328l2.494-3.502l0.016,0.052L635,266.883V436.277z
		 M635,264.777l-192.098,63.371l2.598-3.647v-7l-0.315-0.671L635,253.885V264.777z M642,437.959l-2.186,0.727L637,437.278V266.713
		l5,1.786V437.959z M642,266.375l-5-1.786v-10.67l5,1.786V266.375z M636.825,251.733l-38.038-136.747l112.397,37.623
		l-68.578,101.189L636.825,251.733z M772.483,394.612L644,437.295V268.234l128.49-40.424L772.483,394.612z M781.5,214.406
		l-9.01,9.51v1.797L644,266.137v-10.404l137.5-43.421V214.406z"/>
</g>
</svg>
