<?xml version="1.0" encoding="utf-8"?>
<!-- Generator: Adobe Illustrator 15.0.2, SVG Export Plug-In . SVG Version: 6.00 Build 0)  -->
<!DOCTYPE svg PUBLIC "-//W3C//DTD SVG 1.1//EN" "http://www.w3.org/Graphics/SVG/1.1/DTD/svg11.dtd">
<svg version="1.1" id="Layer_1" xmlns="http://www.w3.org/2000/svg" xmlns:xlink="http://www.w3.org/1999/xlink" x="0px" y="0px"
	 width="535.473px" height="535.473px" viewBox="0 0 535.473 535.473" enable-background="new 0 0 535.473 535.473"
	 xml:space="preserve">
<path fill="#FFFFFF" d="M267.737,0C119.87,0,0,119.87,0,267.737c0,147.866,119.87,267.736,267.737,267.736
	c147.866,0,267.736-119.87,267.736-267.736C535.473,119.87,415.603,0,267.737,0z M409.118,128.531v309.706h-72.967V215.926
	l-68.088,68.613l-68.74-68.74v220.816h-72.967V125.289h0.08c1.252-19.016,17.072-34.052,36.404-34.052
	c9.726,0,18.561,3.808,25.101,10.012l0.012-0.012l79.849,79.849l77.39-77.389c6.687-7.633,16.498-12.459,27.443-12.459
	c20.15,0,36.484,16.334,36.484,36.483c0,0.271-0.003,0.542-0.009,0.811H409.118z"/>
</svg>
