<?xml version="1.0" encoding="iso-8859-1"?>
<svg version="1.1" id="US_x5F_UK" xmlns="http://www.w3.org/2000/svg" xmlns:xlink="http://www.w3.org/1999/xlink" x="0px" y="0px"
	 width="149.1049px" height="26.7547px" viewBox="0 0 149.1049 26.7547" enable-background="new 0 0 149.1049 26.7547"
	 xml:space="preserve">
<g>
	<g id="XMLID_417_">
		<g>
			<path fill="#FFFFFF" d="M34.6537,7.5369h-3.7764V1.4822h0.9395v5.1904h2.8369V7.5369z"/>
			<path fill="#FFFFFF" d="M35.7426,1.616c0-0.3145,0.248-0.5537,0.583-0.5537c0.3359,0,0.584,0.2393,0.584,0.5537
				c0,0.3105-0.248,0.5498-0.584,0.5498C35.9906,2.1658,35.7426,1.9265,35.7426,1.616z M35.8774,2.9676h0.8975v4.5693h-0.8975
				V2.9676z"/>
			<path fill="#FFFFFF" d="M39.8969,2.8797c1.0283,0,1.7002,0.4785,1.7881,1.2842h-0.8643
				c-0.084-0.3359-0.4111-0.5498-0.9238-0.5498c-0.5029,0-0.8848,0.2393-0.8848,0.5957c0,0.2725,0.2305,0.4443,0.7256,0.5576
				l0.7598,0.1768c0.8682,0.2012,1.2754,0.5742,1.2754,1.2461c0,0.8604-0.8018,1.4346-1.8926,1.4346
				c-1.0869,0-1.7959-0.4902-1.875-1.3008h0.9014c0.1133,0.3525,0.4492,0.5713,0.9951,0.5713c0.5625,0,0.9609-0.252,0.9609-0.6172
				c0-0.2725-0.2139-0.4492-0.6719-0.5576L39.394,5.5359c-0.8691-0.2061-1.2715-0.5967-1.2715-1.2764
				C38.1225,3.45,38.8647,2.8797,39.8969,2.8797z"/>
			<path fill="#FFFFFF" d="M44.1713,1.8308v1.1572h0.9902v0.7598h-0.9902v2.3496c0,0.4785,0.1973,0.6885,0.6455,0.6885
				c0.1387,0,0.2188-0.0078,0.3447-0.0205v0.751c-0.1475,0.0254-0.3154,0.0459-0.4912,0.0459c-1.0029,0-1.4014-0.3525-1.4014-1.2334
				V3.7478h-0.7256V2.9881h0.7256V1.8308H44.1713z"/>
			<path fill="#FFFFFF" d="M50.1615,6.3035c-0.2061,0.8184-0.9355,1.3213-1.9805,1.3213c-1.3096,0-2.1113-0.8975-2.1113-2.3574
				c0-1.4609,0.8184-2.3877,2.1064-2.3877c1.2715,0,2.04,0.8682,2.04,2.3037v0.3145h-3.2275v0.0508
				c0.0293,0.8008,0.4951,1.3086,1.2168,1.3086c0.5459,0,0.9189-0.1973,1.0869-0.5537H50.1615z M46.9887,4.8308h2.3086
				c-0.0215-0.7178-0.458-1.1836-1.125-1.1836S47.0395,4.117,46.9887,4.8308z"/>
			<path fill="#FFFFFF" d="M51.4213,2.9676h0.8691v0.7256h0.0674c0.2217-0.5078,0.6748-0.8135,1.3633-0.8135
				c1.0195,0,1.582,0.6123,1.582,1.6992v2.958h-0.9023V4.8054c0-0.7344-0.3184-1.0996-0.9863-1.0996
				c-0.667,0-1.0908,0.4453-1.0908,1.1582v2.6729h-0.9023V2.9676z"/>
			<path fill="#FFFFFF" d="M58.9428,5.2498c0-1.4727,0.8223-2.3701,2.1572-2.3701c1.3301,0,2.1523,0.8975,2.1523,2.3701
				c0,1.4814-0.8184,2.375-2.1523,2.375C59.7612,7.6248,58.9428,6.7312,58.9428,5.2498z M62.3256,5.2498
				c0-0.9902-0.4453-1.5693-1.2256-1.5693c-0.7852,0-1.2256,0.5791-1.2256,1.5693c0,0.999,0.4404,1.5742,1.2256,1.5742
				C61.8803,6.824,62.3256,6.2449,62.3256,5.2498z"/>
			<path fill="#FFFFFF" d="M64.4584,2.9676h0.8691v0.7256h0.0674c0.2217-0.5078,0.6748-0.8135,1.3633-0.8135
				c1.0195,0,1.582,0.6123,1.582,1.6992v2.958h-0.9023V4.8054c0-0.7344-0.3184-1.0996-0.9863-1.0996
				c-0.667,0-1.0908,0.4453-1.0908,1.1582v2.6729h-0.9023V2.9676z"/>
		</g>
	</g>
	<g id="XMLID_415_">
		<g>
			<path fill="#FFFFFF" d="M38.1928,20.4031h-4.7334l-1.1367,3.3564h-2.0049l4.4834-12.418h2.083l4.4834,12.418h-2.0391
				L38.1928,20.4031z M33.9496,18.8543h3.752L35.852,13.407h-0.0518L33.9496,18.8543z"/>
			<path fill="#FFFFFF" d="M51.0502,19.2332c0,2.8135-1.5059,4.6211-3.7783,4.6211c-1.29,0-2.3145-0.5771-2.8486-1.584h-0.043
				v4.4844h-1.8584V14.7058h1.7988v1.5059h0.0342c0.5166-0.9717,1.6182-1.6006,2.8828-1.6006
				C49.5356,14.6111,51.0502,16.4275,51.0502,19.2332z M49.1401,19.2332c0-1.833-0.9473-3.0381-2.3926-3.0381
				c-1.4199,0-2.375,1.2305-2.375,3.0381c0,1.8242,0.9551,3.0459,2.375,3.0459C48.1928,22.2791,49.1401,21.0828,49.1401,19.2332z"/>
			<path fill="#FFFFFF" d="M61.0151,19.2332c0,2.8135-1.5059,4.6211-3.7783,4.6211c-1.29,0-2.3145-0.5771-2.8486-1.584h-0.043
				v4.4844h-1.8584V14.7058h1.7988v1.5059h0.0342c0.5166-0.9717,1.6182-1.6006,2.8828-1.6006
				C59.5004,14.6111,61.0151,16.4275,61.0151,19.2332z M59.1049,19.2332c0-1.833-0.9473-3.0381-2.3926-3.0381
				c-1.4199,0-2.375,1.2305-2.375,3.0381c0,1.8242,0.9551,3.0459,2.375,3.0459C58.1576,22.2791,59.1049,21.0828,59.1049,19.2332z"/>
			<path fill="#FFFFFF" d="M62.5199,11.3416h1.8594v12.418h-1.8594V11.3416z"/>
			<path fill="#FFFFFF" d="M74.0551,21.1004c-0.25,1.6436-1.8506,2.7715-3.8984,2.7715c-2.6338,0-4.2686-1.7646-4.2686-4.5957
				c0-2.8398,1.6436-4.6816,4.1904-4.6816c2.5049,0,4.0801,1.7207,4.0801,4.4658v0.6367h-6.3945v0.1123
				c0,1.5488,0.9727,2.5645,2.4355,2.5645c1.0322,0,1.8418-0.4902,2.0908-1.2734H74.0551z M67.7729,18.3982h4.5264
				c-0.043-1.3857-0.9297-2.2979-2.2207-2.2979C68.7963,16.1004,67.8676,17.0301,67.7729,18.3982z"/>
			<path fill="#FFFFFF" d="M84.0571,11.3416c2.4092,0,4.0879,1.6611,4.0879,4.0791c0,2.4268-1.7129,4.0957-4.1484,4.0957h-2.668
				v4.2432h-1.9277v-12.418H84.0571z M81.3285,17.8992h2.2119c1.6777,0,2.6328-0.9043,2.6328-2.4697
				c0-1.5664-0.9551-2.4619-2.624-2.4619h-2.2207V17.8992z"/>
			<path fill="#FFFFFF" d="M88.8237,19.2332c0-2.8486,1.6777-4.6387,4.2939-4.6387c2.625,0,4.2949,1.79,4.2949,4.6387
				c0,2.8564-1.6611,4.6387-4.2949,4.6387C90.4848,23.8718,88.8237,22.0896,88.8237,19.2332z M95.519,19.2332
				c0-1.9541-0.8955-3.1074-2.4014-3.1074s-2.4014,1.1621-2.4014,3.1074c0,1.9619,0.8955,3.1064,2.4014,3.1064
				S95.519,21.1951,95.519,19.2332z"/>
			<path fill="#FFFFFF" d="M98.7172,19.2332c0-2.7969,1.54-4.6221,3.7861-4.6221c1.2998,0,2.3242,0.6025,2.8398,1.6006h0.0352
				v-4.8701h1.8672v12.418h-1.8076v-1.54h-0.0342c-0.5332,1.0322-1.5664,1.6348-2.8828,1.6348
				C100.2572,23.8543,98.7172,22.0301,98.7172,19.2332z M100.6186,19.2332c0,1.8584,0.9473,3.0459,2.3926,3.0459
				c1.4287,0,2.3838-1.2051,2.3838-3.0459c0-1.8252-0.9551-3.0381-2.3838-3.0381
				C101.5658,16.1951,100.6186,17.3914,100.6186,19.2332z"/>
			<path fill="#FFFFFF" d="M115.1537,17.8211c-0.1631-0.9551-0.9121-1.6689-2.1338-1.6689c-1.4287,0-2.376,1.1963-2.376,3.0811
				c0,1.9277,0.9561,3.0889,2.3926,3.0889c1.1533,0,1.9111-0.5762,2.1172-1.626h1.79c-0.2061,1.9014-1.7295,3.1758-3.9238,3.1758
				c-2.582,0-4.2686-1.7646-4.2686-4.6387c0-2.8145,1.6865-4.6387,4.251-4.6387c2.3232,0,3.7695,1.4629,3.9248,3.2266H115.1537z"/>
			<path fill="#FFFFFF" d="M118.0824,21.1863c0-1.583,1.2129-2.5391,3.3643-2.668l2.4785-0.1377v-0.6885
				c0-1.0068-0.6621-1.5752-1.7891-1.5752c-1.0332,0-1.7559,0.4912-1.9023,1.2744h-1.7383
				c0.0518-1.6357,1.5742-2.7969,3.6914-2.7969c2.1602,0,3.5889,1.1787,3.5889,2.96v6.2051h-1.7812v-1.4893h-0.043
				c-0.5254,1.0068-1.6699,1.6445-2.8574,1.6445C119.3217,23.9148,118.0824,22.8133,118.0824,21.1863z M123.9252,20.3689v-0.6973
				l-2.2285,0.1377c-1.1104,0.0693-1.7383,0.5508-1.7383,1.3252c0,0.792,0.6543,1.3086,1.6523,1.3086
				C122.9106,22.4431,123.9252,21.5476,123.9252,20.3689z"/>
			<path fill="#FFFFFF" d="M130.9633,14.6033c2.0059,0,3.4424,1.1094,3.4854,2.71h-1.7471c-0.0771-0.7998-0.7568-1.29-1.79-1.29
				c-1.0068,0-1.6777,0.4639-1.6777,1.1699c0,0.542,0.4473,0.9033,1.3857,1.1357l1.5234,0.3535
				c1.8242,0.4385,2.5127,1.1094,2.5127,2.4355c0,1.6348-1.5488,2.7539-3.7607,2.7539c-2.1348,0-3.5713-1.0938-3.709-2.7461h1.8408
				c0.1299,0.8691,0.8262,1.334,1.9541,1.334c1.1104,0,1.8076-0.4561,1.8076-1.1787c0-0.5596-0.3447-0.8604-1.291-1.1016
				l-1.6182-0.3955c-1.6357-0.3965-2.4619-1.2314-2.4619-2.4873C127.4174,15.6961,128.8549,14.6033,130.9633,14.6033z"/>
			<path fill="#FFFFFF" d="M138.6938,12.5633v2.1426h1.7217v1.4717h-1.7217v4.9912c0,0.7754,0.3447,1.1367,1.1016,1.1367
				c0.1895,0,0.4912-0.0264,0.6113-0.043v1.4629c-0.2061,0.0518-0.6191,0.0859-1.0322,0.0859c-1.833,0-2.5479-0.6885-2.5479-2.4443
				v-5.1895h-1.3164v-1.4717h1.3164v-2.1426H138.6938z"/>
			<path fill="#FFFFFF" d="M145.4125,14.6033c2.0059,0,3.4424,1.1094,3.4854,2.71h-1.7471c-0.0771-0.7998-0.7568-1.29-1.79-1.29
				c-1.0068,0-1.6777,0.4639-1.6777,1.1699c0,0.542,0.4473,0.9033,1.3857,1.1357l1.5234,0.3535
				c1.8242,0.4385,2.5127,1.1094,2.5127,2.4355c0,1.6348-1.5488,2.7539-3.7607,2.7539c-2.1348,0-3.5713-1.0938-3.709-2.7461h1.8408
				c0.1299,0.8691,0.8262,1.334,1.9541,1.334c1.1104,0,1.8076-0.4561,1.8076-1.1787c0-0.5596-0.3447-0.8604-1.291-1.1016
				l-1.6182-0.3955c-1.6357-0.3965-2.4619-1.2314-2.4619-2.4873C141.8666,15.6961,143.3041,14.6033,145.4125,14.6033z"/>
		</g>
	</g>
	<path fill="#FFFFFF" d="M24.6653,21.8098c-0.2446,0.6213-0.809,1.4961-1.6094,2.1124c-0.4621,0.3559-1.0138,0.6961-1.7716,0.9206
		c-0.8078,0.2394-1.8028,0.3203-3.0412,0.3203H6.9198c-1.2383,0-2.2333-0.0809-3.0412-0.3203
		c-0.7578-0.2245-1.3094-0.5647-1.7716-0.9206c-0.8003-0.6163-1.3648-1.491-1.6094-2.1124C0.005,20.558,0,19.1376,0,18.2432l0,0
		V6.9198l0,0C0,6.0254,0.005,4.605,0.4977,3.3532c0.2446-0.6213,0.809-1.4961,1.6094-2.1123
		C2.5692,0.885,3.1209,0.5448,3.8786,0.3203C4.6865,0.0809,5.6815,0,6.9198,0l0,0h11.3234l0,0c1.2383,0,2.2333,0.0809,3.0412,0.3203
		c0.7578,0.2245,1.3094,0.5648,1.7716,0.9206c0.8003,0.6163,1.3648,1.491,1.6094,2.1123C25.158,4.605,25.163,6.0254,25.163,6.9198
		v11.3233C25.163,19.1376,25.158,20.558,24.6653,21.8098z M14.4064,14.4632c-0.3776-0.3983-1.0408-0.6537-1.8237-0.6537
		c-0.783,0-1.4462,0.2554-1.8238,0.6537c-0.197,0.2079-0.3012,0.4211-0.334,0.7247c-0.0636,0.5879-0.0279,1.0941,0.041,1.9034
		c0.0656,0.7712,0.1902,1.7996,0.3528,2.847c0.1157,0.7454,0.2098,1.1477,0.2953,1.4358c0.1388,0.4669,0.6575,0.8752,1.4687,0.8752
		c0.8111,0,1.3298-0.4084,1.4686-0.8752c0.0856-0.2881,0.1796-0.6904,0.2953-1.4358c0.1626-1.0474,0.2872-2.0758,0.3528-2.847
		c0.0689-0.8094,0.1046-1.3156,0.041-1.9034C14.7076,14.8843,14.6034,14.6711,14.4064,14.4632z M10.5253,10.9159
		c0,1.1374,0.922,2.0594,2.0593,2.0594c1.1374,0,2.0594-0.922,2.0594-2.0594c0-1.1373-0.922-2.0593-2.0594-2.0593
		C11.4473,8.8566,10.5253,9.7786,10.5253,10.9159z M12.5591,2.7889c-4.8163,0.0137-8.7628,3.921-8.8224,8.737
		c-0.0484,3.9013,2.442,7.2385,5.9195,8.4617c0.0844,0.0297,0.1701-0.0404,0.1568-0.1289
		c-0.0456-0.3029-0.0886-0.6073-0.1281-0.9066c-0.014-0.1058-0.0814-0.197-0.1791-0.2397
		c-2.7486-1.2008-4.6679-3.9574-4.6371-7.1505c0.0404-4.1904,3.4622-7.6066,7.6526-7.6405c4.2839-0.0346,7.78,3.4402,7.78,7.7162
		c0,3.1611-1.9109,5.8839-4.6381,7.0751c-0.0977,0.0427-0.1647,0.1342-0.1786,0.2399c-0.0395,0.2992-0.0825,0.6035-0.128,0.9061
		c-0.0134,0.0885,0.0723,0.1586,0.1567,0.129c3.4443-1.2115,5.9202-4.4968,5.9202-8.35C21.4333,6.7498,17.45,2.775,12.5591,2.7889z
		 M12.3992,6.8484c2.7303-0.1057,4.9851,2.0847,4.9851,4.7919c0,1.3768-0.5833,2.6198-1.5156,3.4952
		c-0.0791,0.0742-0.1216,0.1796-0.1155,0.2879c0.0186,0.3293,0.0118,0.6493-0.0101,1.0107
		c-0.0059,0.0963,0.1021,0.1578,0.1818,0.1035c1.5634-1.0684,2.5917-2.8649,2.5917-4.8973c0-3.3464-2.7874-6.0541-6.1623-5.9233
		c-3.1364,0.1216-5.6527,2.7075-5.6929,5.8461c-0.0264,2.0642,1.0082,3.8929,2.5917,4.9747
		c0.0795,0.0543,0.1872-0.0073,0.1813-0.1035c-0.022-0.3616-0.0287-0.6816-0.0102-1.0109C9.4303,15.3154,9.388,15.21,9.309,15.1358
		c-0.9614-0.9026-1.5518-2.1961-1.5142-3.6241C7.861,8.9986,9.8871,6.9457,12.3992,6.8484z"/>
</g>
<g>
</g>
<g>
</g>
<g>
</g>
<g>
</g>
<g>
</g>
<g>
</g>
<g>
</g>
<g>
</g>
<g>
</g>
<g>
</g>
<g>
</g>
<g>
</g>
<g>
</g>
<g>
</g>
<g>
</g>
</svg>
