<svg xmlns="http://www.w3.org/2000/svg" width="841.89" height="595.28" viewBox="0 0 841.89 595.28"><path d="M625.226 438.318l.61 1.903L478.33 487.43l-.608-1.904zM460.332 471.055v-88.388c-.003-.177-.18-19.49 14.266-22.973 4.44-1.07 8.05-.262 10.62 2.357 4.22 4.307 4.12 11.98 4.114 12.303v87.034l-29 9.668zm17.877-109.82c-.97 0-2.027.135-3.144.404-12.882 3.103-12.737 20.83-12.734 21.01v85.63l25-8.334v-85.612c0-.09.086-7.187-3.548-10.887-1.443-1.468-3.318-2.213-5.575-2.213zM579.332 433.05V345c.03-.87.85-20.52 14.465-23.312a14.69 14.69 0 0 1 2.938-.314c8.952 0 11.718 9.76 11.93 14.92v87.098l-29.333 9.657zm17.403-109.677c-.797 0-1.65.092-2.536.273-12.07 2.477-12.862 21.2-12.87 21.388l.002 85.25 25.333-8.34v-85.61c-.02-.49-.66-12.96-9.93-12.96zM673 405.408v-43.74c.06-.716 1.51-15.46 11.7-18.622 1.126-.35 2.21-.526 3.22-.526 6.265 0 8.67 6.784 9.068 10.37l.006.11v44.046L673 405.408zm14.92-60.888c-.81 0-1.693.146-2.627.437-8.926 2.77-10.284 16.662-10.297 16.802l.004 40.834 19.994-6.97V353.06c-.098-.783-1.216-8.54-7.073-8.54zM724.334 388.81v-43.74c.06-.715 1.51-15.46 11.7-18.62 1.126-.35 2.21-.527 3.22-.527 6.265 0 8.67 6.784 9.068 10.37l.006.11v44.046l-23.994 8.36zm14.92-60.888c-.81 0-1.693.146-2.627.437-8.926 2.77-10.284 16.66-10.297 16.8l.004 40.837 19.994-6.97v-42.563c-.098-.784-1.216-8.542-7.073-8.542zM673 327.78v-43.74c.06-.716 1.51-15.46 11.7-18.622 1.126-.35 2.21-.526 3.22-.526 6.265 0 8.67 6.784 9.068 10.372l.006.11v44.045L673 327.78zm14.92-60.888c-.81 0-1.693.147-2.627.437-8.926 2.77-10.284 16.66-10.297 16.8l.004 40.836 19.994-6.97v-42.563c-.098-.783-1.216-8.54-7.073-8.54zM724.334 311.183v-43.74c.06-.716 1.51-15.46 11.7-18.622 1.126-.348 2.21-.525 3.22-.525 6.265 0 8.67 6.784 9.068 10.372l.006.11v44.045l-23.994 8.36zm14.92-60.89c-.81 0-1.693.148-2.627.438-8.926 2.77-10.284 16.663-10.297 16.803l.004 40.835 19.994-6.97v-42.563c-.098-.783-1.216-8.54-7.073-8.54zM332.086 512.886v-43.74c.06-.716 1.51-15.46 11.7-18.622 1.127-.35 2.21-.526 3.22-.526 6.265 0 8.67 6.784 9.068 10.37l.006.11v44.046l-23.994 8.362zm14.92-60.89c-.81 0-1.693.147-2.626.438-8.926 2.77-10.285 16.662-10.297 16.802l.004 40.836 19.994-6.97V460.54c-.098-.785-1.216-8.543-7.073-8.543zM383.42 496.288v-43.74c.06-.716 1.51-15.46 11.7-18.622 1.127-.35 2.21-.526 3.22-.526 6.265 0 8.67 6.784 9.068 10.37l.006.11v44.046l-23.994 8.362zm14.92-60.89c-.81 0-1.693.147-2.626.438-8.926 2.77-10.285 16.662-10.297 16.802l.004 40.836 19.995-6.97V443.94c-.1-.783-1.217-8.54-7.074-8.54zM332.086 435.258v-43.74c.06-.716 1.51-15.46 11.7-18.622 1.127-.35 2.21-.526 3.22-.526 6.265 0 8.67 6.784 9.068 10.37l.006.11v44.046l-23.994 8.362zm14.92-60.89c-.81 0-1.693.147-2.626.438-8.926 2.77-10.285 16.662-10.297 16.802l.004 40.836 19.994-6.97V382.91c-.098-.783-1.216-8.54-7.073-8.54zM383.42 418.66v-43.74c.06-.716 1.51-15.46 11.7-18.622 1.127-.35 2.21-.526 3.22-.526 6.265 0 8.67 6.784 9.068 10.37l.006.11V410.3l-23.994 8.362zm14.92-60.89c-.81 0-1.693.147-2.626.438-8.926 2.77-10.285 16.662-10.297 16.802l.004 40.836 19.995-6.97v-42.563c-.1-.784-1.217-8.542-7.074-8.542zM104.66 457.892l-21.332-7.175v-42.053c.028-.607.754-13.756 9.49-13.756a9 9 0 0 1 1.323.1c9.71 1.44 10.492 18.876 10.52 19.618v43.266zM85.33 449.28l17.333 5.828v-40.444c-.005-.126-.737-16.48-8.812-17.677a6.97 6.97 0 0 0-1.03-.08c-6.85 0-7.485 11.687-7.49 11.805v40.567zM103.994 378.233l-21.333-7.175v-42.053c.03-.607.755-13.756 9.49-13.756a9 9 0 0 1 1.324.1c9.71 1.44 10.49 18.875 10.52 19.617v43.266zM84.66 369.62l17.334 5.83v-40.444c-.006-.126-.738-16.48-8.813-17.677a6.97 6.97 0 0 0-1.03-.08c-6.85 0-7.484 11.686-7.49 11.804v40.567zM254.327 508.226l-21.333-7.175V459c.028-.607.754-13.756 9.49-13.756a9 9 0 0 1 1.323.1c9.71 1.44 10.49 18.876 10.52 19.618v43.266zm-19.333-8.613l17.333 5.83v-40.445c-.006-.126-.738-16.48-8.813-17.677a6.97 6.97 0 0 0-1.03-.078c-6.85 0-7.485 11.686-7.49 11.804v40.567zM253.66 428.567l-21.332-7.175V379.34c.028-.607.754-13.756 9.49-13.756a9 9 0 0 1 1.323.1c9.71 1.44 10.492 18.876 10.52 19.618v43.265zm-19.332-8.612l17.333 5.83V385.34c-.005-.126-.737-16.48-8.812-17.677a6.97 6.97 0 0 0-1.03-.08c-6.85 0-7.485 11.687-7.49 11.805v40.567zM289.327 520.017l-21.333-7.175V470.79c.028-.608.754-13.757 9.49-13.757a9 9 0 0 1 1.323.1c9.71 1.44 10.49 18.876 10.52 19.618v43.267zm-19.333-8.613l17.333 5.83v-40.445c-.006-.127-.738-16.48-8.813-17.678a6.97 6.97 0 0 0-1.03-.08c-6.85 0-7.485 11.687-7.49 11.805v40.567zM288.66 440.358l-21.332-7.175V391.13c.028-.607.754-13.756 9.49-13.756a9 9 0 0 1 1.323.1c9.71 1.44 10.492 18.876 10.52 19.618v43.266zm-19.332-8.612l17.333 5.83V397.13c-.005-.125-.737-16.478-8.812-17.676a6.97 6.97 0 0 0-1.03-.08c-6.85 0-7.485 11.687-7.49 11.805v40.566zM213.994 411.404l-2.01.745 2.01.675z"/><path d="M789.5 208.153l-72.995-62.2-242.615-81.21-67.923 100.364L388 170.804l-74.395-23.6-26.52 47.238-.656-22.95-11.978-5.987-13.452 7.08v38.45l-7.456 2.27-120.667-39.546L58.5 283.774v8.762l8.5 6.707v175.64l233.735 77.91 1.235.412 139.53-44.28v-4.506l190.168-60.863 7.518 3.76 141.33-46.93-.007-173.303 8.99-9.49v-9.44zm-9.397 2.503l-47.493 14.998V194.73c-.013-.457-.386-11.182-7.465-11.182-.7 0-1.443.113-2.212.335-8.666 2.507-9.105 14.426-9.12 14.96v32.747l-6.125 1.934v-30.582c-.013-.457-.386-11.182-7.465-11.182-.7 0-1.443.113-2.212.335-8.665 2.507-9.104 14.426-9.12 14.96v32.405l-43.448 13.72 67.566-99.695 67.095 57.17zm-49.494-15.9v31.427l-9.73 3.174-5.068 1.6v-32.086c.003-.108.396-10.96 7.677-13.067a6 6 0 0 1 1.654-.256c5.14 0 5.463 9.145 5.465 9.21zm-24.922 8.213v31.186l-14.797 4.672v-31.745c.004-.11.397-10.962 7.678-13.068a6 6 0 0 1 1.655-.256c5.14 0 5.463 9.144 5.465 9.21zM477.11 74.256l111.117 37.194-50.69 15.902V98.387l-10.223-3.728-9.814 2.84v36.138l-102.292 32.088 61.902-91.47zm44.23 24.185l6.076-1.736 5.167 1.88-5.574 1.857-5.67-2zm4.66 3.766v28.764l-6.5 2.04v-33.1l6.5 2.296zm2 .013l7.537-2.51v28.27L528 130.344V102.22zm-210.606 54.577l62.783 19.917-89.775 28.16 26.992-48.077zm-37.573 51.398l-4.82 1.513v-29.19l3.645-2.12 1.176 29.797zm-5.273-33.7l3.674 1.838-4.284 2.488-3.7-2.055 4.31-2.27zm-5.547 3.87l4 2.223v29.747l-4 1.255v-33.224zm0 38.6v-3.28l10.902-3.42.012.293 9.054-3.136 94.53-29.653 4.5 1.427 23.035-7.303 2.373-3.506 178.053-55.854 5.036 1.686 38.284 137.63-191.358 63.457-69.6-57.753-112.215-38.34 7.393-2.25zm114.582 75.03a8 8 0 0 0-2.21.336c-8.668 2.508-9.107 14.426-9.122 14.96v32.735l-6.125 1.998v-30.8c-.012-.457-.386-11.184-7.464-11.184a8 8 0 0 0-2.21.334c-8.667 2.507-9.106 14.426-9.12 14.96v32.822l-42.864 13.987 69.244-102.17 68.76 57.137-51.422 16.78v-30.714c-.014-.454-.387-11.18-7.466-11.18zm5.465 11.21v31.34l-14.797 4.827V307.32c.003-.11.415-10.968 7.677-13.07a6.002 6.002 0 0 1 1.656-.255c5.14 0 5.46 9.146 5.464 9.21zm-24.922 8.045v31.426l-14.797 4.83v-32.14c.003-.11.415-10.97 7.677-13.07a6.005 6.005 0 0 1 1.656-.256c5.14 0 5.463 9.146 5.465 9.21zM120 417.047V392.91l73 25.55v24.835l-73-26.248zm20 10.95v40.445l-17.333-5.83v-40.566c0-.03.04-.773.206-1.875l16.99 6.118c.105 1.033.136 1.686.137 1.71zm4-45.146v16.34l-22.114-7.74 22.114-8.6zm-13.39 3l-8.61-2.895v-40.567c.004-.118.64-11.804 7.49-11.804.33 0 .677.026 1.03.08 8.075 1.196 8.807 17.55 8.813 17.676v34.006l-8.723 3.505zm28.066 18.476L159 355.02c.002-.12.35-12.152 7.23-12.152.4 0 .82.04 1.254.117 8.45 1.51 9.502 15.936 9.51 16.016v51.738l-18.318-6.412zm35.24 41.424l5.745-2.04v66.96l-24.966-8.32v-63.52l19.223 6.92zm28.087-37.314v25.177L195 443.24v-24.795l27.003-10.01zm-13.08 2.684l-12.262-4.124V366.43c.005-.12.64-11.805 7.49-11.805.332 0 .678.026 1.03.08 8.076 1.196 8.808 17.55 8.814 17.676v36.85l-5.07 1.89zM301 544.45l-99.34-33.113v-68.34l22.337-7.935V405.5l-8.002 2.983v-36.14c-.03-.743-.81-18.18-10.52-19.618a9.15 9.15 0 0 0-1.323-.1c-8.736 0-9.462 13.147-9.49 13.755v42.053l11.286 3.796-11.956 4.456-14.997-5.25-.002-52.502c-.043-.657-1.167-16.133-11.155-17.92-.55-.098-1.09-.147-1.606-.147-8.815 0-9.217 13.532-9.23 14.124l-.332 48.633L146 399.89v-20.223l-4.667 1.875v-33.24c-.03-.742-.81-18.178-10.52-19.617a9.15 9.15 0 0 0-1.323-.1c-8.736 0-9.462 13.147-9.49 13.755v42.053l7.75 2.606-9.75 3.917v27.5l2.952 1.062a23.637 23.637 0 0 0-.285 2.518v42.053L142 471.227V427.96a24.662 24.662 0 0 0-.058-.923l30.752 11.072v63.57L75 469.118V302.37l226 74.353V544.45zm0-169.832L75 300.263v-4.226l-8.5-7.573v-1.09l234.5 77.35v9.894zm.596-11.804L67.03 285.44l69.093-102.2 117.333 38.455 4.88-1.485 113.602 38.813-70.342 103.79zM436.5 497.62l-3 .96v4.493L303 544.486v-167.75l133.5-41.38V497.62zM303 374.644v-9.92l140.5-45.846v5.294l-6.61 8.97L303 374.645zm244.02 87.603l-24.688 7.902V364c0-.18.154-17.936 11.922-21.033 1.048-.275 2.05-.416 2.98-.416 8.63 0 9.78 12.408 9.787 12.45v107.247zm87.98-25.97l-2.668-1.334-83.31 26.664-.005-106.69c-.412-4.97-3.406-14.366-11.782-14.366-1.102 0-2.276.163-3.49.483-13.26 3.49-13.413 22.173-13.413 22.967v106.79L438.5 496.98V334.327l2.494-3.502.016.052L635 266.883v169.394zm0-171.5l-192.098 63.37 2.598-3.646v-7l-.315-.67L635 253.885v10.892zm7 173.182l-2.186.726-2.814-1.408V266.713l5 1.786v169.46zm0-171.585l-5-1.786v-10.67l5 1.785v10.67zm-5.175-14.642l-38.038-136.747 112.397 37.623-68.578 101.188-5.78-2.065zm135.658 142.88L644 437.294v-169.06l128.49-40.425-.007 166.802zm9.017-180.207l-9.01 9.51v1.797L644 266.137v-10.404l137.5-43.42v2.093z"/></svg>