<svg xmlns="http://www.w3.org/2000/svg" width="841.89" height="595.28" viewBox="0 0 841.89 595.28"><path d="M625.226 438.318l.609 1.903-147.504 47.207-.61-1.904zM460.332 471.055v-88.388c-.003-.177-.18-19.491 14.266-22.973 4.441-1.069 8.051-.262 10.619 2.357 4.222 4.306 4.121 11.978 4.115 12.302v87.034l-29 9.668zm17.877-109.821c-.97 0-2.026.136-3.143.405-12.882 3.104-12.737 20.831-12.734 21.01v85.63l25-8.333v-85.612c.001-.09.086-7.187-3.548-10.887-1.443-1.468-3.318-2.213-5.575-2.213zM579.332 433.049V345c.029-.869.851-20.52 14.465-23.312a14.69 14.69 0 0 1 2.938-.314c8.952 0 11.718 9.76 11.929 14.92l.001 87.098-29.333 9.657zm17.403-109.676c-.797 0-1.65.092-2.536.273-12.07 2.477-12.861 21.199-12.868 21.388l.001 85.251 25.333-8.342v-85.609c-.021-.489-.66-12.961-9.93-12.961zM673 405.408v-43.74c.061-.716 1.51-15.46 11.701-18.622 1.125-.35 2.209-.526 3.22-.526 6.264 0 8.67 6.784 9.067 10.371l.006.11v44.045L673 405.408zm14.921-60.888c-.81 0-1.694.146-2.628.437-8.926 2.77-10.284 16.662-10.297 16.802l.004 40.835 19.994-6.97v-42.563c-.098-.784-1.216-8.541-7.073-8.541zM724.334 388.811v-43.74c.061-.716 1.51-15.46 11.701-18.622 1.125-.35 2.209-.526 3.22-.526 6.264 0 8.67 6.784 9.067 10.371l.006.11v44.045l-23.994 8.362zm14.921-60.889c-.81 0-1.694.146-2.628.437-8.926 2.77-10.284 16.662-10.297 16.802l.004 40.836 19.994-6.97v-42.563c-.098-.784-1.216-8.542-7.073-8.542zM673 327.78v-43.74c.061-.716 1.51-15.46 11.701-18.622 1.125-.349 2.209-.526 3.22-.526 6.264 0 8.67 6.784 9.067 10.372l.006.11v44.045L673 327.78zm14.921-60.888c-.81 0-1.694.147-2.628.437-8.926 2.77-10.284 16.662-10.297 16.802l.004 40.835 19.994-6.97v-42.563c-.098-.783-1.216-8.541-7.073-8.541zM724.334 311.183v-43.74c.061-.716 1.51-15.46 11.701-18.622 1.125-.349 2.209-.526 3.22-.526 6.264 0 8.67 6.784 9.067 10.372l.006.11v44.045l-23.994 8.361zm14.921-60.889c-.81 0-1.694.147-2.628.437-8.926 2.77-10.284 16.662-10.297 16.802l.004 40.835 19.994-6.97v-42.563c-.098-.783-1.216-8.541-7.073-8.541zM332.086 512.886v-43.74c.061-.716 1.51-15.46 11.701-18.622 1.126-.35 2.209-.526 3.22-.526 6.264 0 8.67 6.784 9.067 10.371l.006.11v44.045l-23.994 8.362zm14.921-60.889c-.81 0-1.694.146-2.627.437-8.926 2.77-10.285 16.662-10.297 16.802l.004 40.836 19.994-6.97v-42.563c-.099-.784-1.217-8.542-7.074-8.542zM383.42 496.288v-43.74c.061-.716 1.51-15.46 11.701-18.622 1.126-.35 2.209-.526 3.22-.526 6.264 0 8.67 6.784 9.067 10.371l.006.11v44.045l-23.994 8.362zm14.921-60.889c-.81 0-1.694.146-2.627.437-8.926 2.77-10.285 16.662-10.297 16.802l.004 40.836 19.994-6.97V443.94c-.099-.783-1.217-8.541-7.074-8.541zM332.086 435.258v-43.74c.061-.716 1.51-15.46 11.701-18.622 1.126-.35 2.209-.526 3.22-.526 6.264 0 8.67 6.784 9.067 10.371l.006.11v44.045l-23.994 8.362zm14.921-60.889c-.81 0-1.694.146-2.627.437-8.926 2.77-10.285 16.662-10.297 16.802l.004 40.836 19.994-6.97V382.91c-.099-.783-1.217-8.541-7.074-8.541zM383.42 418.66v-43.74c.061-.716 1.51-15.46 11.701-18.622 1.126-.35 2.209-.526 3.22-.526 6.264 0 8.67 6.784 9.067 10.371l.006.11v44.045l-23.994 8.362zm14.921-60.889c-.81 0-1.694.146-2.627.437-8.926 2.77-10.285 16.662-10.297 16.802l.004 40.836 19.994-6.97v-42.563c-.099-.784-1.217-8.542-7.074-8.542zM104.661 457.892l-21.333-7.175v-42.053c.028-.607.754-13.756 9.49-13.756a9 9 0 0 1 1.323.101c9.709 1.439 10.491 18.875 10.519 19.617l.001 43.266zm-19.333-8.613l17.333 5.829v-40.444c-.006-.126-.738-16.479-8.813-17.677a6.97 6.97 0 0 0-1.03-.079c-6.85 0-7.485 11.686-7.491 11.804l.001 40.567zM103.994 378.233l-21.333-7.175v-42.053c.028-.607.754-13.756 9.49-13.756a9 9 0 0 1 1.323.101c9.709 1.439 10.491 18.875 10.519 19.617l.001 43.266zm-19.333-8.612l17.333 5.829v-40.444c-.006-.126-.738-16.479-8.813-17.677a6.97 6.97 0 0 0-1.03-.079c-6.85 0-7.485 11.686-7.491 11.804l.001 40.567zM254.327 508.226l-21.333-7.175v-42.053c.028-.607.754-13.756 9.49-13.756a9 9 0 0 1 1.323.101c9.709 1.439 10.491 18.875 10.519 19.617l.001 43.266zm-19.333-8.613l17.333 5.829v-40.444c-.006-.126-.738-16.479-8.813-17.677a6.97 6.97 0 0 0-1.03-.079c-6.85 0-7.485 11.686-7.491 11.804l.001 40.567zM253.661 428.567l-21.333-7.175V379.34c.028-.607.754-13.756 9.49-13.756a9 9 0 0 1 1.323.101c9.709 1.439 10.491 18.875 10.519 19.617l.001 43.265zm-19.333-8.612l17.333 5.829V385.34c-.006-.126-.738-16.479-8.813-17.677a6.97 6.97 0 0 0-1.03-.079c-6.85 0-7.485 11.686-7.491 11.804l.001 40.567zM289.327 520.017l-21.333-7.175v-42.053c.028-.607.754-13.756 9.49-13.756a9 9 0 0 1 1.323.101c9.709 1.439 10.491 18.875 10.519 19.617l.001 43.266zm-19.333-8.613l17.333 5.829v-40.444c-.006-.126-.738-16.479-8.813-17.677a6.97 6.97 0 0 0-1.03-.079c-6.85 0-7.485 11.686-7.491 11.804l.001 40.567zM288.661 440.358l-21.333-7.175V391.13c.028-.607.754-13.756 9.49-13.756a9 9 0 0 1 1.323.101c9.709 1.439 10.491 18.875 10.519 19.617l.001 43.266zm-19.333-8.612l17.333 5.829v-40.444c-.006-.126-.738-16.479-8.813-17.677a6.97 6.97 0 0 0-1.03-.079c-6.85 0-7.485 11.686-7.491 11.804l.001 40.567zM213.994 411.404l-2.01.745 2.01.676z"/><path d="M789.5 208.153l-72.995-62.201L473.89 64.743l-67.923 100.364L388 170.804l-74.395-23.601-26.52 47.239-.656-22.949-11.977-5.988-13.452 7.08v38.451l-7.456 2.269-120.667-39.546L58.5 283.775v8.762l8.5 6.707v175.639l233.735 77.912 1.235.411 139.53-44.279v-4.507l190.168-60.863 7.518 3.76 141.331-46.929-.008-173.304 8.991-9.49v-9.441zm-9.397 2.503l-47.493 14.998V194.73c-.013-.457-.386-11.182-7.465-11.182-.699 0-1.443.113-2.212.335-8.666 2.507-9.105 14.426-9.12 14.96v32.747l-6.125 1.934v-30.582c-.013-.457-.386-11.182-7.465-11.182-.699 0-1.443.113-2.212.335-8.666 2.507-9.105 14.426-9.12 14.96v32.405l-43.449 13.721 67.566-99.696 67.095 57.171zm-49.494-15.899v31.426l-9.728 3.174-5.069 1.601v-32.087c.003-.109.396-10.962 7.677-13.068a6 6 0 0 1 1.655-.256c5.141 0 5.463 9.145 5.465 9.21zm-24.921 8.212v31.187l-14.797 4.672v-31.745c.003-.109.396-10.962 7.677-13.068a6 6 0 0 1 1.655-.256c5.14 0 5.463 9.145 5.465 9.21zM477.11 74.257l111.117 37.194-50.69 15.901V98.387l-10.223-3.728L517.5 97.5v36.138l-102.292 32.088 61.902-91.469zm44.23 24.185l6.076-1.736 5.167 1.879-5.574 1.858-5.669-2.001zm4.66 3.766v28.764l-6.5 2.039V99.913l6.5 2.295zm2 .013l7.537-2.512v28.271L528 130.344v-28.123zm-210.606 54.576l62.783 19.917-89.775 28.161 26.992-48.078zm-37.573 51.398L275 209.708v-29.189l3.645-2.121 1.176 29.797zm-5.274-33.699l3.674 1.837-4.285 2.488-3.701-2.056 4.312-2.269zm-5.547 3.87l4 2.222v29.747l-4 1.255v-33.224zm0 38.598v-3.278l10.902-3.42.012.292 9.054-3.136 94.531-29.653 4.5 1.428 23.034-7.303 2.373-3.506 178.053-55.854 5.037 1.686 38.284 137.631-191.358 63.456-69.6-57.753-112.215-38.34 7.393-2.25zm114.582 75.032a8 8 0 0 0-2.211.335c-8.667 2.507-9.106 14.425-9.121 14.96v32.734l-6.125 1.998v-30.801c-.012-.456-.386-11.183-7.464-11.183a8 8 0 0 0-2.211.335c-8.667 2.507-9.106 14.426-9.121 14.961v32.821l-42.863 13.987 69.244-102.171 68.759 57.138-51.421 16.779v-30.713c-.014-.454-.387-11.18-7.466-11.18zm5.465 11.209v31.339l-14.797 4.828V307.32c.003-.109.415-10.968 7.677-13.069a6.002 6.002 0 0 1 1.656-.256c5.139.001 5.461 9.146 5.464 9.21zm-24.922 8.045v31.426l-14.797 4.829v-32.14c.003-.109.415-10.968 7.677-13.068a6.005 6.005 0 0 1 1.656-.257c5.139 0 5.462 9.146 5.464 9.21zM120 417.047V392.91l73 25.55v24.835l-73-26.248zm20 10.951v40.444l-17.333-5.829-.001-40.567c.001-.029.042-.773.207-1.875l16.99 6.117c.105 1.033.136 1.686.137 1.71zm4-45.147v16.339l-22.114-7.739 22.114-8.6zm-13.39 3l-8.61-2.896-.001-40.567c.005-.118.641-11.804 7.491-11.804.331 0 .677.026 1.03.079 8.075 1.197 8.807 17.551 8.813 17.677v34.006l-8.723 3.505zm28.066 18.475l.324-49.305c.002-.122.35-12.153 7.23-12.153.399 0 .821.04 1.254.117 8.45 1.511 9.502 15.936 9.51 16.016v51.737l-18.318-6.412zm35.241 41.424l5.744-2.041v66.962l-24.967-8.322v-63.52l19.223 6.921zm28.086-37.314v25.177L195 443.241v-24.796l27.003-10.009zm-13.08 2.684l-12.262-4.124-.001-40.567c.005-.118.641-11.804 7.491-11.804.331 0 .677.026 1.03.079 8.075 1.197 8.807 17.551 8.813 17.677v36.849l-5.071 1.89zM301 544.45l-99.339-33.113v-68.339l22.336-7.936V405.5l-8.002 2.983-.001-36.141c-.028-.742-.81-18.178-10.519-19.617a9.15 9.15 0 0 0-1.323-.101c-8.736 0-9.462 13.148-9.49 13.756v42.053l11.286 3.796-11.956 4.457-14.997-5.249-.002-52.503c-.043-.657-1.167-16.133-11.155-17.919a9.088 9.088 0 0 0-1.606-.148c-8.815 0-9.217 13.532-9.23 14.124l-.332 48.632L146 399.89v-20.223l-4.667 1.875-.001-33.24c-.028-.742-.81-18.178-10.519-19.617a9.15 9.15 0 0 0-1.323-.101c-8.736 0-9.462 13.148-9.49 13.756v42.053l7.75 2.606-9.75 3.918v27.5l2.952 1.062a23.637 23.637 0 0 0-.285 2.519v42.053L142 471.226l-.001-43.266a24.662 24.662 0 0 0-.057-.923l30.752 11.072v63.572L75 469.117V302.369l226 74.354V544.45zm0-169.832L75 300.263v-4.226l-8.5-7.573v-1.091l234.5 77.35v9.895zm.596-11.804L67.03 285.441l69.093-102.2 117.333 38.454 4.881-1.485 113.601 38.813-70.342 103.791zM436.5 497.62l-3 .96v4.493L303 544.486v-167.75l133.5-41.38V497.62zM303 374.644v-9.919l140.5-45.847v5.294l-6.609 8.971L303 374.644zm244.021 87.603l-24.689 7.902V364.001c0-.18.154-17.937 11.922-21.034 1.048-.275 2.051-.416 2.981-.416 8.628 0 9.779 12.407 9.786 12.449v107.247zM635 436.277l-2.668-1.334-83.311 26.664-.004-106.69c-.412-4.969-3.406-14.366-11.782-14.366-1.102 0-2.276.162-3.491.482-13.26 3.49-13.412 22.173-13.412 22.967v106.789l-81.832 26.19V334.328l2.494-3.502.016.052L635 266.883v169.394zm0-171.5l-192.098 63.371 2.598-3.647v-7l-.315-.671L635 253.885v10.892zm7 173.182l-2.186.727-2.814-1.408V266.713l5 1.786v169.46zm0-171.584l-5-1.786v-10.67l5 1.786v10.67zm-5.175-14.642l-38.038-136.747 112.397 37.623-68.578 101.189-5.781-2.065zm135.658 142.879L644 437.295V268.234l128.49-40.424-.007 166.802zm9.017-180.206l-9.01 9.51v1.797L644 266.137v-10.404l137.5-43.421v2.094z"/></svg>