<svg xmlns="http://www.w3.org/2000/svg" width="300" height="300"><path fill="#c1ffc8" d="M150 0C67.157 0 0 67.158 0 150c0 82.843 67.157 150 150 150s150-67.157 150-150C300 67.158 232.843 0 150 0zm69.15 78.787v150.86h-35.544V121.45l-32.025 32.024-.003-.008-1.47 1.47-33.637-33.638v107.558H80.928V77.21h.04c.608-9.264 8.314-16.588 17.732-16.588 4.817 0 9.187 1.917 12.387 5.03l.178.177 38.85 38.847 37.39-37.394c3.26-4.06 8.262-6.66 13.873-6.66 9.815 0 17.77 7.956 17.77 17.77 0 .13 0 .263-.003.393h.004z"/></svg>