<svg xmlns="http://www.w3.org/2000/svg" width="149.105" height="26.755" viewBox="0 0 149.1049 26.7547"><g fill="#FFF"><path d="M34.654 7.537h-3.777V1.482h.94v5.19h2.837v.865zM35.743 1.616c0-.315.248-.554.583-.554.336 0 .584.24.584.554 0 .31-.248.55-.584.55-.335 0-.583-.24-.583-.55zm.134 1.352h.898v4.57h-.898v-4.57zM39.897 2.88c1.028 0 1.7.478 1.788 1.284h-.864c-.083-.336-.41-.55-.923-.55-.503 0-.885.24-.885.596 0 .272.23.444.726.557l.76.177c.868.2 1.275.574 1.275 1.246 0 .86-.802 1.435-1.893 1.435-1.087 0-1.796-.49-1.875-1.3h.902c.113.352.45.57.995.57.562 0 .96-.252.96-.617 0-.272-.213-.45-.67-.557l-.798-.184c-.87-.206-1.272-.597-1.272-1.276 0-.81.743-1.38 1.775-1.38zM44.17 1.83V2.99h.992v.76h-.99v2.35c0 .478.197.688.645.688.14 0 .22-.008.345-.02v.75a2.906 2.906 0 0 1-.492.046c-1.003 0-1.4-.352-1.4-1.233V3.747h-.727v-.76h.726V1.83h.9zM50.161 6.303c-.205.82-.934 1.322-1.98 1.322-1.31 0-2.11-.898-2.11-2.358s.818-2.387 2.106-2.387c1.272 0 2.04.868 2.04 2.303v.315H46.99v.05c.028.8.494 1.31 1.215 1.31.546 0 .92-.198 1.087-.554h.87zm-3.17-1.472h2.307c-.02-.717-.458-1.183-1.125-1.183s-1.133.47-1.183 1.184zM51.42 2.968h.87v.725h.068c.222-.508.675-.813 1.363-.813 1.02 0 1.583.612 1.583 1.7v2.957H54.4V4.805c0-.734-.318-1.1-.985-1.1s-1.09.446-1.09 1.16v2.672h-.904v-4.57zM58.943 5.25c0-1.473.822-2.37 2.157-2.37 1.33 0 2.152.897 2.152 2.37 0 1.48-.818 2.375-2.152 2.375-1.34 0-2.157-.894-2.157-2.375zm3.383 0c0-.99-.446-1.57-1.226-1.57-.785 0-1.226.58-1.226 1.57 0 1 .44 1.574 1.226 1.574.78 0 1.226-.58 1.226-1.574zM64.458 2.968h.87v.725h.067c.222-.508.675-.813 1.363-.813 1.02 0 1.582.612 1.582 1.7v2.957h-.902V4.805c0-.734-.32-1.1-.986-1.1-.667 0-1.09.446-1.09 1.16v2.672h-.903v-4.57z"/></g><g fill="#FFF"><path d="M38.193 20.403H33.46l-1.137 3.356h-2.005L34.8 11.34h2.084l4.484 12.42h-2.04l-1.135-3.357zm-4.243-1.55h3.752l-1.85-5.446H35.8l-1.85 5.447zM51.05 19.233c0 2.814-1.506 4.62-3.778 4.62-1.29 0-2.315-.576-2.85-1.583h-.042v4.485h-1.858v-12.05h1.8v1.507h.033c.516-.972 1.618-1.6 2.883-1.6 2.298 0 3.812 1.815 3.812 4.62zm-1.91 0c0-1.833-.947-3.038-2.393-3.038-1.42 0-2.375 1.23-2.375 3.038 0 1.824.956 3.046 2.375 3.046 1.446 0 2.393-1.197 2.393-3.047zM61.015 19.233c0 2.814-1.506 4.62-3.778 4.62-1.29 0-2.315-.576-2.85-1.583h-.042v4.485h-1.858v-12.05h1.8v1.507h.033c.516-.972 1.618-1.6 2.883-1.6 2.297 0 3.812 1.815 3.812 4.62zm-1.91 0c0-1.833-.947-3.038-2.393-3.038-1.42 0-2.375 1.23-2.375 3.038 0 1.824.955 3.046 2.375 3.046 1.446 0 2.393-1.197 2.393-3.047zM62.52 11.342h1.86V23.76h-1.86V11.342zM74.055 21.1c-.25 1.644-1.85 2.772-3.898 2.772-2.634 0-4.27-1.765-4.27-4.596 0-2.84 1.645-4.68 4.19-4.68 2.506 0 4.082 1.72 4.082 4.464v.637h-6.396v.112c0 1.548.973 2.564 2.436 2.564 1.032 0 1.84-.49 2.09-1.273h1.765zm-6.282-2.702H72.3c-.044-1.386-.93-2.298-2.22-2.298-1.284 0-2.212.93-2.307 2.298zM84.057 11.342c2.41 0 4.088 1.66 4.088 4.08 0 2.425-1.713 4.094-4.148 4.094H81.33v4.244H79.4V11.342h4.657zM81.33 17.9h2.21c1.678 0 2.633-.905 2.633-2.47 0-1.567-.955-2.462-2.624-2.462h-2.22v4.93zM88.824 19.233c0-2.848 1.677-4.64 4.294-4.64 2.625.002 4.295 1.792 4.295 4.64 0 2.857-1.662 4.64-4.295 4.64s-4.294-1.783-4.294-4.64zm6.695 0c0-1.954-.896-3.107-2.402-3.107s-2.402 1.162-2.402 3.107c0 1.962.896 3.107 2.402 3.107s2.4-1.145 2.4-3.107zM98.717 19.233c0-2.797 1.54-4.622 3.786-4.622 1.3 0 2.325.604 2.84 1.602h.035v-4.87h1.868V23.76h-1.808v-1.54h-.034c-.533 1.032-1.567 1.634-2.883 1.634-2.263 0-3.803-1.824-3.803-4.62zm1.902 0c0 1.86.946 3.046 2.39 3.046 1.43 0 2.385-1.206 2.385-3.047 0-1.825-.955-3.038-2.384-3.038-1.444 0-2.39 1.196-2.39 3.038zM115.154 17.82c-.163-.954-.912-1.668-2.134-1.668-1.43 0-2.376 1.196-2.376 3.08 0 1.93.956 3.09 2.392 3.09 1.154 0 1.912-.576 2.118-1.626h1.79c-.206 1.902-1.73 3.176-3.924 3.176-2.582 0-4.27-1.765-4.27-4.64 0-2.813 1.688-4.637 4.252-4.637 2.324 0 3.77 1.462 3.925 3.226h-1.773zM118.082 21.186c0-1.583 1.213-2.54 3.365-2.668l2.478-.137v-.688c0-1.007-.662-1.575-1.79-1.575-1.032 0-1.755.49-1.9 1.274h-1.74c.052-1.634 1.575-2.796 3.692-2.796 2.16 0 3.59 1.18 3.59 2.96v6.206h-1.782v-1.49h-.043c-.526 1.007-1.67 1.645-2.858 1.645-1.772 0-3.012-1.102-3.012-2.73zm5.843-.817v-.698l-2.228.137c-1.11.07-1.74.55-1.74 1.325 0 .79.656 1.308 1.654 1.308 1.3 0 2.315-.895 2.315-2.074zM130.963 14.603c2.006 0 3.443 1.11 3.486 2.71H132.7c-.077-.8-.757-1.29-1.79-1.29-1.007 0-1.678.464-1.678 1.17 0 .542.447.903 1.386 1.136l1.523.352c1.824.44 2.513 1.11 2.513 2.436 0 1.635-1.55 2.754-3.76 2.754-2.136 0-3.572-1.094-3.71-2.746h1.84c.13.87.827 1.334 1.955 1.334 1.11 0 1.81-.456 1.81-1.18 0-.56-.346-.86-1.292-1.1l-1.62-.396c-1.634-.397-2.46-1.23-2.46-2.487 0-1.6 1.437-2.694 3.545-2.694zM138.694 12.563v2.143h1.722v1.472h-1.722v4.99c0 .776.345 1.137 1.1 1.137.19 0 .493-.026.613-.043v1.463c-.206.052-.62.086-1.033.086-1.832 0-2.547-.687-2.547-2.443v-5.19h-1.317v-1.47h1.317v-2.144h1.867zM145.412 14.603c2.006 0 3.443 1.11 3.486 2.71h-1.747c-.076-.8-.756-1.29-1.79-1.29-1.006 0-1.677.464-1.677 1.17 0 .542.447.903 1.386 1.136l1.522.352c1.824.44 2.513 1.11 2.513 2.436 0 1.635-1.55 2.754-3.76 2.754-2.136 0-3.572-1.094-3.71-2.746h1.84c.13.87.827 1.334 1.955 1.334 1.11 0 1.808-.456 1.808-1.18 0-.56-.345-.86-1.29-1.1l-1.62-.396c-1.635-.397-2.46-1.23-2.46-2.487 0-1.6 1.436-2.694 3.544-2.694z"/></g><path fill="#FFF" d="M24.665 21.81c-.244.62-.81 1.496-1.61 2.112a5.27 5.27 0 0 1-1.77.92c-.81.24-1.804.32-3.042.32H6.92c-1.238 0-2.233-.08-3.04-.32a5.272 5.272 0 0 1-1.773-.92c-.8-.616-1.365-1.49-1.61-2.112C.006 20.558 0 19.138 0 18.243V6.92c0-.895.005-2.315.498-3.567.244-.62.81-1.496 1.61-2.112a5.27 5.27 0 0 1 1.77-.92C4.687.08 5.682 0 6.92 0h11.323c1.24 0 2.234.08 3.04.32.76.225 1.31.565 1.773.92.8.617 1.365 1.492 1.61 2.113.492 1.252.497 2.672.497 3.567v11.323c0 .895-.005 2.315-.498 3.567zm-10.26-7.347c-.376-.398-1.04-.653-1.822-.653-.783 0-1.447.255-1.824.653-.198.208-.302.42-.335.725-.064.588-.028 1.094.04 1.903.066.773.19 1.8.354 2.848.114.746.208 1.148.294 1.436.14.467.657.875 1.47.875.81 0 1.328-.41 1.467-.876.087-.288.18-.69.297-1.436a43.8 43.8 0 0 0 .352-2.847c.068-.808.104-1.314.04-1.902a1.157 1.157 0 0 0-.334-.725zm-3.88-3.547a2.06 2.06 0 1 0 4.12 0 2.06 2.06 0 0 0-4.12 0zM12.56 2.79c-4.817.013-8.764 3.92-8.823 8.736-.05 3.9 2.442 7.238 5.92 8.462.084.03.17-.04.156-.13-.046-.302-.09-.607-.128-.906a.304.304 0 0 0-.18-.24c-2.748-1.2-4.667-3.957-4.636-7.15.04-4.19 3.46-7.607 7.65-7.64 4.285-.035 7.78 3.44 7.78 7.716 0 3.16-1.91 5.883-4.637 7.075a.304.304 0 0 0-.178.24c-.04.3-.083.603-.128.906a.118.118 0 0 0 .156.128c3.445-1.212 5.92-4.497 5.92-8.35 0-4.888-3.983-8.863-8.874-8.85zm-.16 4.058a4.8 4.8 0 0 1 4.984 4.792c0 1.377-.583 2.62-1.515 3.495a.367.367 0 0 0-.117.288c.02.33.012.65-.01 1.01a.117.117 0 0 0 .182.105 5.926 5.926 0 0 0 2.592-4.898 5.934 5.934 0 0 0-6.163-5.923c-3.136.122-5.652 2.708-5.693 5.846a5.925 5.925 0 0 0 2.593 4.975.116.116 0 0 0 .18-.104 8.483 8.483 0 0 1-.01-1.01.367.367 0 0 0-.114-.288 4.783 4.783 0 0 1-1.515-3.624A4.81 4.81 0 0 1 12.4 6.848z"/></svg>