<?xml version="1.0" encoding="utf-8"?>
<!-- Generator: Adobe Illustrator 15.1.0, SVG Export Plug-In . SVG Version: 6.00 Build 0)  -->
<!DOCTYPE svg PUBLIC "-//W3C//DTD SVG 1.1//EN" "http://www.w3.org/Graphics/SVG/1.1/DTD/svg11.dtd">
<svg version="1.1" xmlns="http://www.w3.org/2000/svg" xmlns:xlink="http://www.w3.org/1999/xlink" x="0px" y="0px" width="256px"
	 height="256px" viewBox="0 0 256 256" enable-background="new 0 0 256 256" xml:space="preserve">
<g id="Ebene_1">
	<path fill="#BD3BDD" d="M0,0v256h256V0H0z M187.008,67.232v128.734h-30.33v-92.329l-27.328,27.328l-0.004-0.006l-1.253,1.254
		l-28.704-28.705v91.783h-30.33V65.886h0.033c0.52-7.905,7.095-14.155,15.132-14.155c4.11,0,7.84,1.636,10.57,4.292l0.152,0.151
		l33.152,33.15l31.906-31.909c2.781-3.465,7.049-5.684,11.838-5.684c8.376,0,15.165,6.79,15.165,15.165c0,0.112,0,0.224-0.004,0.335
		H187.008z"/>
</g>
<g id="M">
</g>
</svg>
